{"title":"Horrid Henry 2011 DVDRiP AC3 5.1 XViD - U.S.M","uid":6845409,"size":1495555265,"categoryP":"video","categoryS":"movies","magnet":"?xt=urn:btih:eacad0c06b3c08914e843e10bb47ebf27c140cd8&amp;dn=Horrid+Henry+2011+DVDRiP+AC3+5.1+XViD+-+U.S.M&amp;tr=udp%3A%2F%2Ftracker.openbittorrent.com%3A80&amp;tr=udp%3A%2F%2Fopen.demonii.com%3A1337&amp;tr=udp%3A%2F%2Ftracker.coppersurfer.tk%3A6969&amp;tr=udp%3A%2F%2Fexodus.desync.com%3A6969","seeders":0,"leechers":1,"uploader":"sceneline","files":104,"time":1322328312,"description":"- &lt;a href=&quot;\nhttp://www.Speed.Cd&quot; rel=&quot;nofollow&quot; target=&quot;_NEW&quot;&gt;\nhttp://www.Speed.Cd&lt;/a&gt;      fast  and The Hottest Private Tracker on the net\n\n   signup is open now\n\nPlease Seed back to make the speed Faster!!!\n\n------------------nfo--------------------------\n-UUUUUUUU     UUUUUUUU           SSSSSSSSSSSSSSS         MMMMMMMM               MMMMMMMM     \nU::::::U     U::::::U         SS:::::::::::::::S        M:::::::M             M:::::::M     \nU::::::U     U::::::U        S:::::SSSSSS::::::S        M::::::::M           M::::::::M     \nUU:::::U     U:::::UU        S:::::S     SSSSSSS        M:::::::::M         M:::::::::M     \n U:::::U     U:::::U         S:::::S                    M::::::::::M       M::::::::::M     \n U:::::D     D:::::U         S:::::S                    M:::::::::::M     M:::::::::::M     \n U:::::D     D:::::U          S::::SSSS                 M:::::::M::::M   M::::M:::::::M     \n U:::::D     D:::::U           SS::::::SSSSS            M::::::M M::::M M::::M M::::::M     \n U:::::D     D:::::U             SSS::::::::SS          M::::::M  M::::M::::M  M::::::M     \n U:::::D     D:::::U                SSSSSS::::S         M::::::M   M:::::::M   M::::::M     \n U:::::D     D:::::U                     S:::::S        M::::::M    M:::::M    M::::::M     \n U::::::U   U::::::U                     S:::::S        M::::::M     MMMMM     M::::::M     \n U:::::::UUU:::::::U         SSSSSSS     S:::::S        M::::::M               M::::::M     \n  UU:::::::::::::UU   ...... S::::::SSSSSS:::::S ...... M::::::M               M::::::M     \n    UU:::::::::UU     .::::. S:::::::::::::::SS  .::::. M::::::M               M::::::M     \n      UUUUUUUUU       ......  SSSSSSSSSSSSSSS    ...... MMMMMMMM               MMMMMMMM   \n\n\n\n                      Horrid Henry 2011 DVDRiP AC3 5.1 XViD - U.S.M\n\n\nSOURCES:\n\nHORRID HENRY 2011 PAL DVDR Legend-Rg\n\nIMDB:\n\nwww.imdb.com/title/tt1684555/\n\nVideo\nID                               : 0\nFormat                           : MPEG-4 Visual\nFormat profile                   : Advanced Simple@L5\nFormat settings, BVOP            : 2\nFormat settings, QPel            : No\nFormat settings, GMC             : No warppoints\nFormat settings, Matrix          : Default (MPEG)\nMuxing mode                      : Packed bitstream\nCodec ID                         : XVID\nCodec ID/Hint                    : XviD\nDuration                         : 1h 29mn\nBit rate                         : 1 745 Kbps\nWidth                            : 720 pixels\nHeight                           : 384 pixels\nDisplay aspect ratio             : 1.875\nFrame rate                       : 25.000 fps\nColor space                      : YUV\nChroma subsampling               : 4:2:0\nBit depth                        : 8 bits\nScan type                        : Progressive\nCompression mode                 : Lossy\nBits/(Pixel*Frame)               : 0.252\nStream size                      : 1.09 GiB (79%)\nWriting library                  : XviD 64\n\nAudio\nID                               : 1\nFormat                           : AC-3\nFormat/Info                      : Audio Coding 3\nMode extension                   : CM (complete main)\nCodec ID                         : 2000\nDuration                         : 1h 29mn\nBit rate mode                    : Constant\nBit rate                         : 448 Kbps\nChannel(s)                       : 6 channels\nChannel positions                : Front: L C R, Side: L R, LFE\nSampling rate                    : 48.0 KHz\nBit depth                        : 16 bits\nCompression mode                 : Lossy\nStream size                      : 285 MiB (20%)\nAlignment                        : Aligned on interleaves\nInterleave, duration             : 40 ms (1.00 video frame)\nInterleave, preload duration     : 512 ms\n\n\nWORKDONE:\n\nNice simple rip of the dvd,nothing fancy done...no tweaking.Only thing i needed to do was when remuxing the audio it\nwas oos,so had to add 500ms to reline it back up.\nAudio just stripped and remuxed.\nCheck sample for Q.\n\nSCREENIES:\n\n[IMG]http://i.imgur.com/x8Cvb.png[/IMG]\n[IMG]http://i.imgur.com/fHDae.png[/IMG]\n[IMG]http://i.imgur.com/alBTs.png[/IMG]\n[IMG]http://i.imgur.com/i7ygS.png[/IMG]","torrent":{"xt":"urn:btih:eacad0c06b3c08914e843e10bb47ebf27c140cd8","amp;dn":"Horrid+Henry+2011+DVDRiP+AC3+5.1+XViD+-+U.S.M","amp;tr":["udp%3A%2F%2Ftracker.openbittorrent.com%3A80","udp%3A%2F%2Fopen.demonii.com%3A1337","udp%3A%2F%2Ftracker.coppersurfer.tk%3A6969","udp%3A%2F%2Fexodus.desync.com%3A6969"],"infoHash":"eacad0c06b3c08914e843e10bb47ebf27c140cd8","infoHashBuffer":{"type":"Buffer","data":[234,202,208,192,107,60,8,145,78,132,62,16,187,71,235,242,124,20,12,216]},"announce":[],"urlList":[]}}